Coordinates
version=1
nRows=26
nColumns=24
inDegrees=yes

Units are S.I. units (second, meters, Newtons, ...)
Angles are in degrees.

endheader
time	pelvis_tilt	pelvis_list	pelvis_rotation	pelvis_tx	pelvis_ty	pelvis_tz	hip_flexion_r	hip_adduction_r	hip_rotation_r	knee_angle_r	ankle_angle_r	subtalar_angle_r	mtp_angle_r	hip_flexion_l	hip_adduction_l	hip_rotation_l	knee_angle_l	ankle_angle_l	subtalar_angle_l	mtp_angle_l	lumbar_extension	lumbar_bending	lumbar_rotation
      3.27500000	      7.09498145	      8.02497350	      0.92520522	      0.11025064	      0.99678624	      0.02171820	      5.18295037	     -7.05066291	    -12.61775628	    -17.64544195	      5.10657079	     -2.33797944	     -4.11260575	      9.84027947	      6.39009747	     -4.02355154	    -58.89268625	      4.03985911	      6.51144808	     53.59566837	    -19.71773593	     -6.50119769	      5.50511335
      3.28000000	      7.08628551	      8.11557703	      0.78126135	      0.11497691	      0.99739406	      0.02214656	      4.80678051	     -7.10673822	    -12.54988847	    -17.46816861	      5.33560256	     -2.12757451	     -4.14615009	     10.35316832	      6.41699038	     -4.31973791	    -58.49050974	      4.43066855	      6.60027393	     53.20637679	    -19.72713536	     -6.68050888	      5.68203990
      3.28500000	      7.09377226	      8.17964848	      0.72725036	      0.11970943	      0.99801712	      0.02246869	      4.37186096	     -7.13433520	    -12.59786643	    -17.24448480	      5.50967296	     -2.05149200	     -4.41889739	     10.83755514	      6.43206053	     -4.53152302	    -58.06413534	      4.92898665	      6.67074854	     51.67007539	    -19.76533719	     -6.80421373	      5.71262998
      3.29000000	      7.04806382	      8.23661433	      0.68164917	      0.12439230	      0.99855113	      0.02280898	      3.99953020	     -7.15013846	    -12.60596275	    -17.01965171	      5.61902484	     -1.99837292	     -4.41209567	     11.36836404	      6.43898898	     -4.73680460	    -57.56376813	      5.27808798	      6.61426130	     51.64769782	    -19.74875144	     -6.92764220	      5.74468687
      3.29500000	      7.04558683	      8.33699348	      0.55276818	      0.12908408	      0.99911181	      0.02317575	      3.61248687	     -7.22932852	    -12.58868620	    -16.83929670	      5.84274255	     -1.77068650	     -4.42445535	     11.81426173	      6.48414091	     -5.02520626	    -56.96017661	      5.57932015	      6.56176981	     51.37101182	    -19.77153577	     -7.11423208	      5.89516513
      3.30000000	      7.08137807	      8.39549315	      0.52701596	      0.13380952	      0.99973915	      0.02340780	      3.12594418	     -7.26268817	    -12.71558964	    -16.59026404	      6.00824546	     -1.61753093	     -4.64387076	     12.20157498	      6.50994407	     -5.20064503	    -56.32975025	      5.98381277	      6.56385524	     50.16787622	    -19.84493234	     -7.22202569	      5.92389636
      3.30500000	      7.02551224	      8.47444561	      0.44177071	      0.13845668	      1.00018085	      0.02374604	      2.79247225	     -7.31585921	    -12.71945393	    -16.40404045	      6.17027602	     -1.48863244	     -4.64501040	     12.67725566	      6.53678161	     -5.45886227	    -55.62936857	      6.25298163	      6.48379640	     50.04758961	    -19.81768759	     -7.38112472	      5.99418790
      3.31000000	      6.95952987	      8.51217258	      0.41654499	      0.14309413	      1.00058881	      0.02397986	      2.44338432	     -7.32501167	    -12.77636059	    -16.18335123	      6.25517408	     -1.41326064	     -4.64682134	     13.15131703	      6.54096622	     -5.64086247	    -54.89069372	      6.53140374	      6.38246869	     49.96694377	    -19.78408644	     -7.47541848	      6.03951103
      3.31500000	      7.07549905	      8.60246573	      0.37960460	      0.14786694	      1.00128425	      0.02416307	      1.85899707	     -7.40748684	    -12.97943649	    -15.92686757	      6.48717811	     -1.09644146	     -4.79783848	     13.36406930	      6.61580311	     -5.81665575	    -54.03235883	      6.79502719	      6.30035184	     48.98651717	    -19.94329351	     -7.61650648	      6.07142494
      3.32000000	      6.99857841	      8.68104664	      0.30207514	      0.15247666	      1.00160786	      0.02443062	      1.56110658	     -7.47189871	    -13.00935930	    -15.76129573	      6.64342147	     -0.94463839	     -4.80746016	     13.80097696	      6.65644884	     -6.06663006	    -53.15748027	      6.96855636	      6.18144883	     48.80207768	    -19.89737894	     -7.77225771	      6.15255286
      3.32500000	      6.97054892	      8.74759696	      0.24799565	      0.15713880	      1.00200069	      0.02462322	      1.18781043	     -7.53038527	    -13.12060465	    -15.57383309	      6.81258824	     -0.72773736	     -4.83347767	     14.15041287	      6.70074262	     -6.28007881	    -52.21348238	      7.13630964	      6.02673351	     48.49465609	    -19.90195497	     -7.90179570	      6.22642811
      3.33000000	      7.01936441	      8.79428676	      0.25059389	      0.16185204	      1.00248259	      0.02477338	      0.68559007	     -7.55882337	    -13.31709216	    -15.32693332	      6.95319765	     -0.53240246	     -5.05858774	     14.38628194	      6.73711108	     -6.42249348	    -51.22342687	      7.37227175	      6.03964741	     47.47191730	    -19.99760148	     -7.99162016	      6.19509507
      3.33500000	      6.95165544	      8.84872540	      0.17933592	      0.16646533	      1.00272924	      0.02494695	      0.38818435	     -7.60861969	    -13.38279709	    -15.18302107	      7.12722193	     -0.34703662	     -5.05807598	     14.73995533	      6.77243404	     -6.65312288	    -50.17645603	      7.47839218	      5.86748802	     47.32061197	    -19.95818409	     -8.11330431	      6.32726155
      3.34000000	      6.92951036	      8.91921071	      0.11571672	      0.17111428	      1.00301502	      0.02512238	      0.03170636	     -7.67648156	    -13.49411426	    -15.03050251	      7.30407724	     -0.14837156	     -5.06859634	     15.00850491	      6.82582679	     -6.88258586	    -49.05552991	      7.55064310	      5.72385608	     47.10535159	    -19.97186027	     -8.24966649	      6.39394043
      3.34500000	      6.93885804	      8.97865928	      0.05117006	      0.17578686	      1.00331992	      0.02524202	     -0.36473199	     -7.73789508	    -13.61481770	    -14.86955750	      7.48311399	      0.09752737	     -5.09977772	     15.21141528	      6.88004186	     -7.09746528	    -47.87163139	      7.60621625	      5.58212909	     46.79691471	    -20.01695131	     -8.36686951	      6.48473062
      3.35000000	      7.00611161	      9.01035034	      0.00602888	      0.18049118	      1.00366469	      0.02533738	     -0.84371863	     -7.76747871	    -13.78597160	    -14.68215516	      7.64548924	      0.37464558	     -5.21243709	     15.32110602	      6.91455732	     -7.28000343	    -46.63818217	      7.70257888	      5.48075502	     46.23194481	    -20.12557760	     -8.44672626	      6.56786729
      3.35500000	      6.97716863	      9.05976414	     -0.08205778	      0.18513115	      1.00381571	      0.02548969	     -1.16113575	     -7.81866334	    -13.85289781	    -14.57103278	      7.83241728	      0.55549979	     -5.27633043	     15.51945904	      6.95028273	     -7.53672850	    -45.35344336	      7.71056972	      5.38433528	     45.86861817	    -20.12734420	     -8.56513760	      6.68321877
      3.36000000	      7.02639277	      9.11469593	     -0.13991295	      0.18982101	      1.00404280	      0.02558843	     -1.58767627	     -7.87686595	    -14.00812103	    -14.43697789	      8.03099783	      0.75537048	     -5.43468383	     15.59534243	      7.00519194	     -7.76040454	    -44.00147085	      7.69146358	      5.36087627	     45.25179722	    -20.21853160	     -8.67442617	      6.75195088
      3.36500000	      6.97504949	      9.15069168	     -0.27618772	      0.19442604	      1.00404647	      0.02575194	     -1.83589152	     -7.92442376	    -14.00652724	    -14.38233277	      8.23490147	      0.94172482	     -5.45481353	     15.76852679	      7.01930593	     -8.08583923	    -42.61028032	      7.63755029	      5.23721555	     45.04281343	    -20.19131757	     -8.78849757	      6.93620855
      3.37000000	      6.93600416	      9.18731206	     -0.39709540	      0.19904991	      1.00402806	      0.02591921	     -2.09805929	     -7.96982456	    -14.02400655	    -14.33638488	      8.45820090	      1.09092084	     -5.45947574	     15.89790328	      7.03607998	     -8.40557223	    -41.15957656	      7.50677490	      5.16361811	     44.85767839	    -20.17947688	     -8.90342415	      7.08543049
      3.37500000	      7.02253057	      9.21615495	     -0.51843156	      0.20375940	      1.00417256	      0.02602122	     -2.52934412	     -8.01290589	    -14.12110457	    -14.24065742	      8.65182134	      1.32137740	     -5.54566038	     15.83932949	      7.06267756	     -8.70976218	    -39.62318544	      7.36947349	      5.11698114	     44.46410814	    -20.29831672	     -8.99685244	      7.28359904
      3.38000000	      6.95848812	      9.24680818	     -0.67258573	      0.20837239	      1.00400037	      0.02619807	     -2.72947637	     -8.05948417	    -14.07526887	    -14.24119707	      8.89799456	      1.45920477	     -5.53944438	     15.94202919	      7.06960522	     -9.09063448	    -38.06882111	      7.18188492	      5.06303896	     44.30349570	    -20.25486579	     -9.11392634	      7.46219019
      3.38500000	      6.94383870	      9.26638165	     -0.84506851	      0.21302192	      1.00386571	      0.02634742	     -2.98638667	     -8.10017239	    -14.03915521	    -14.23198112	      9.12887204	      1.62283377	     -5.54030330	     15.95284694	      7.07031226	     -9.49648734	    -36.44713664	      6.94865490	      5.02329091	     44.11660602	    -20.25900470	     -9.21784031	      7.70955528
      3.39000000	      7.01920213	      9.26245662	     -1.01412290	      0.21773523	      1.00383463	      0.02647835	     -3.36547460	     -8.11606895	    -14.05151879	    -14.18613381	      9.33164042	      1.81892823	     -5.58640704	     15.82324175	      7.05701142	     -9.90143254	    -34.75861771	      6.68574354	      5.03821535	     43.81776940	    -20.35612692	     -9.29135684	      7.98717437
      3.39500000	      6.95727149	      9.28167778	     -1.17940039	      0.22240443	      1.00352615	      0.02659908	     -3.55066101	     -8.15965048	    -13.99479431	    -14.21932510	      9.60069492	      1.92779531	     -5.57379893	     15.83184756	      7.06308202	    -10.34814894	    -33.04282719	      6.36249530	      5.07814177	     43.64868254	    -20.30744577	     -9.39354473	      8.18750353
      3.40000000	      7.02734615	      9.26419925	     -1.36174350	      0.22712516	      1.00337291	      0.02670368	     -3.90461640	     -8.16690606	    -13.97532758	    -14.20337134	      9.81937494	      2.07821309	     -5.61101998	     15.65402437	      7.04270983	    -10.80914701	    -31.26099519	      6.01764548	      5.18298570	     43.33150673	    -20.39642598	     -9.45515006	      8.50069665
